<svg id="b7b1e75c-dbc6-4f4a-b55a-361099dbc656" data-name="bc8a4106-2635-439d-aac0-8761bd555e93" xmlns="http://www.w3.org/2000/svg" viewBox="0 0 200 160"><defs><style>.a60fe2a9-d3c8-44cc-87ff-ca22ff7a5f3a,.b6d8dad4-526c-4076-b7af-18ed64f84413{fill:none;stroke-linecap:round;stroke-miterlimit:10;stroke-width:6px;}.b6d8dad4-526c-4076-b7af-18ed64f84413{stroke:#6ca1f4;}.a60fe2a9-d3c8-44cc-87ff-ca22ff7a5f3a{stroke:#3d64ad;}.aba21886-61f4-4bba-a36b-9e092a062f84{fill:#3d64ad;}</style></defs><title>functions-icon-2</title><line class="b6d8dad4-526c-4076-b7af-18ed64f84413" x1="27.87" y1="132.09" x2="172.13" y2="132.09"/><line class="a60fe2a9-d3c8-44cc-87ff-ca22ff7a5f3a" x1="27.87" y1="132.09" x2="117.26" y2="132.09"/><path class="aba21886-61f4-4bba-a36b-9e092a062f84" d="M190,26a4,4,0,0,1,4,4V170a4,4,0,0,1-4,4H10a4,4,0,0,1-4-4V30a4,4,0,0,1,4-4H190m0-6H10A10,10,0,0,0,0,30V170a10,10,0,0,0,10,10H190a10,10,0,0,0,10-10V30a10,10,0,0,0-10-10Z" transform="translate(0 -20)"/><path class="aba21886-61f4-4bba-a36b-9e092a062f84" d="M81.62,65.57l39.29,22.68L81.62,110.94V65.57m-5.47-9.48v64.33l55.7-32.17L76.15,56.09Z" transform="translate(0 -20)"/></svg>