<svg id="a19ca286-e629-4d0d-894c-9ab562f88385" data-name="a9290135-2b92-4017-b704-c3cf4d660113" xmlns="http://www.w3.org/2000/svg" viewBox="0 0 251.1 266.35"><defs><style>.a40b6895-c75f-4e46-ae4b-7607618b1a5c,.f5472a73-0ca1-475d-afbe-014bb730f447{fill:none;stroke:#3d64ad;stroke-miterlimit:10;stroke-width:6px;}.a40b6895-c75f-4e46-ae4b-7607618b1a5c{fill-rule:evenodd;}.a3111530-7255-49c3-920e-5e9bbf538f55{fill:#3d64ad;}</style></defs><title>functions-icon-6</title><path class="a40b6895-c75f-4e46-ae4b-7607618b1a5c" d="M172.24,185.53c-8.18-15.15-11-29-10-44s7-26.49,10-41.49c2-16-3.82-31.14-15.82-42.14-10-9-24-12-36-7a94.75,94.75,0,0,0-12.85,8.48c-5,3-10.88-1.36-18.25,1.66-14.32,5.87-22.46,20-15.08,46.3,7.7,27.43,23.7,35.21,4.62,78.19" transform="translate(0)"/><path class="a40b6895-c75f-4e46-ae4b-7607618b1a5c" d="M78.86,185.53c.19-.08,36.25-14.63,33.27-37.16l-.11-.81-.64-.5c-3.61-2.83-12.62-11.53-16.39-21.5-3.31-8.77-2.12-18.85.53-26.35,3.66-10.35,13.12-19.85,14.54-20.64.6-.34,11.29-.88,21.19,1.42,2.49.58,11.37,3.52,17.3,8.87a27.42,27.42,0,0,1,8.42,16.6,48.36,48.36,0,0,1-2.95,22.1c-3.78,8.87-11.09,17-14.3,19.5l-.64.5-.11.81c-3,22.52,33.08,37.08,33.27,37.16" transform="translate(0)"/><path class="f5472a73-0ca1-475d-afbe-014bb730f447" d="M200.05,248.59c3.67-19.72,1.25-42.46-9.5-52.55a51.86,51.86,0,0,0-11-7c-.38.56-.77,1.11-1.16,1.65l-.14.19c-.36.5-.72,1-1.09,1.48-.2.27-.41.53-.62.8-.32.43-.65.85-1,1.27s-.74.93-1.12,1.38l-.22.26q-.49.6-1,1.2t-.84,1c-.35.4-.71.79-1.07,1.18s-.91,1-1.38,1.46c-.92,1-1.86,1.88-2.82,2.77-.26.25-.51.48-.77.71s-.66.6-1,.89l-.27.23c-.46.41-.92.8-1.39,1.18a.75.75,0,0,1-.14.12c-.4.34-.81.67-1.22,1l-.29.23-.89.68-.09.07c-.51.39-1,.77-1.53,1.13L158,210.93l-.17.12-.63.41-.5.33-.13.08-.63.39c-.34.22-.69.44-1,.64a6.32,6.32,0,0,1-.56.33c-.44.26-.89.52-1.34.76a.78.78,0,0,1-.2.11l0,0-.22.12-.17.09h0l-.71.37-.07,0-.84.43h0c-.28.15-.57.29-.86.42l-.11.06-.56.26-.62.29-.62.27-.18.08-1.2.51-.17.07c-.32.13-.64.26-1,.37s-.67.26-1,.39l-.11,0c-.49.18-1,.35-1.49.51s-.94.31-1.41.45l-.12,0-.43.13-.43.12-.4.12-.36.1-.76.2h0l-1.74.41-1.36.27-.62.11-.16,0c-.52.1-1,.18-1.57.26l-1.53.2h-.13l-.55.06-.54.05c-.69.08-1.38.13-2.07.16l-1.11.05h-.4c-.5,0-1,0-1.51,0s-1,0-1.51,0h-.4l-1.11-.05c-.69,0-1.38-.08-2.07-.16l-.54-.05-.55-.06h-.13l-1.53-.2c-.53-.08-1-.16-1.57-.26l-.16,0-.62-.11L114,220l-1.74-.41h-.05l-.76-.2-.36-.1-.4-.12-.43-.12-.43-.13-.12,0q-.7-.21-1.41-.45c-.5-.16-1-.33-1.49-.51l-.11,0c-.34-.13-.68-.25-1-.39s-.64-.24-1-.37l-.17-.07-1.2-.51-.18-.08-.62-.27-.62-.29-.56-.26-.11-.06c-.29-.13-.58-.27-.86-.42h0l-.84-.43-.07,0-.71-.37h0l-.17-.09-.22-.12,0,0a.78.78,0,0,1-.2-.11c-.45-.24-.9-.5-1.34-.76a6.32,6.32,0,0,1-.56-.33c-.35-.2-.7-.42-1-.64l-.63-.39-.13-.08-.5-.33-.63-.41-.17-.12q-.78-.52-1.56-1.08c-.51-.36-1-.74-1.53-1.13l-.09-.07L89,208l-.29-.23c-.41-.32-.82-.65-1.22-1a.75.75,0,0,1-.14-.12c-.47-.38-.93-.77-1.39-1.18l-.27-.23c-.33-.29-.66-.58-1-.89s-.51-.46-.77-.71c-1-.89-1.9-1.82-2.82-2.77-.47-.48-.93-1-1.38-1.46s-.72-.78-1.07-1.18-.57-.64-.84-1-.69-.8-1-1.2l-.22-.26c-.38-.45-.75-.91-1.12-1.38s-.67-.84-1-1.27c-.21-.27-.42-.53-.62-.8-.37-.49-.73-1-1.09-1.48l-.14-.19c-.39-.54-.78-1.09-1.16-1.65a51.86,51.86,0,0,0-11,7c-10.75,10.09-13.17,32.83-9.5,52.55Z" transform="translate(0)"/><path class="f5472a73-0ca1-475d-afbe-014bb730f447" d="M78.86,185.53c-2.52,1.15-5,2.29-7.36,3.49.38.56.77,1.11,1.16,1.65l.14.19c.36.5.72,1,1.09,1.48.2.27.41.53.62.8.32.43.65.85,1,1.27s.74.93,1.12,1.38l.22.26q.5.6,1,1.2t.84,1c.35.4.71.79,1.07,1.18s.91,1,1.38,1.46c.92,1,1.86,1.88,2.82,2.77.26.25.51.48.77.71s.66.6,1,.89l.27.23c.46.41.92.8,1.39,1.18a.75.75,0,0,0,.14.12c.4.34.81.67,1.22,1L89,208l.89.68.09.07c.51.39,1,.77,1.53,1.13s1,.73,1.56,1.08l.17.12.63.41.5.33.13.08.63.39c.34.22.69.44,1,.64a6.32,6.32,0,0,0,.56.33c.44.26.89.52,1.34.76a.78.78,0,0,0,.2.11l0,0,.22.12.17.09h0l.71.37.07,0,.84.43h0c.28.15.57.29.86.42l.11.06.56.26.62.29.62.27.18.08,1.2.51.17.07c.32.13.64.26,1,.37s.67.26,1,.39l.11,0c.49.18,1,.35,1.49.51s.94.31,1.41.45l.12,0,.43.13.43.12.4.12.36.1.76.2h.05L114,220l1.36.27.62.11.16,0c.52.1,1,.18,1.57.26l1.53.2h.13l.55.06.54.05c.69.08,1.38.13,2.07.16l1.11.05h.4c.5,0,1,0,1.51,0s1,0,1.51,0h.4l1.11-.05c.69,0,1.38-.08,2.07-.16l.54-.05.55-.06h.13l1.53-.2c.53-.08,1.05-.16,1.57-.26l.16,0,.62-.11,1.36-.27,1.74-.41h0l.76-.2.36-.1.4-.12.43-.12.43-.13.12,0q.71-.21,1.41-.45c.5-.16,1-.33,1.49-.51l.11,0c.34-.13.68-.25,1-.39s.64-.24,1-.37l.17-.07,1.2-.51.18-.08.62-.27.62-.29.56-.26.11-.06c.29-.13.58-.27.86-.42h0l.84-.43.07,0,.71-.37h0l.17-.09.22-.12,0,0a.78.78,0,0,0,.2-.11c.45-.24.9-.5,1.34-.76a6.32,6.32,0,0,0,.56-.33c.35-.2.7-.42,1-.64l.63-.39.13-.08.5-.33.63-.41.17-.12,1.56-1.08c.51-.36,1-.74,1.53-1.13l.09-.07.89-.68.29-.23c.41-.32.82-.65,1.22-1a.75.75,0,0,0,.14-.12c.47-.38.93-.77,1.39-1.18l.27-.23c.33-.29.66-.58,1-.89s.51-.46.77-.71c1-.89,1.9-1.82,2.82-2.77.47-.48.93-1,1.38-1.46s.72-.78,1.07-1.18.57-.64.84-1,.69-.8,1-1.2l.22-.26c.38-.45.75-.91,1.12-1.38s.67-.84,1-1.27c.21-.27.42-.53.62-.8.37-.49.73-1,1.09-1.48l.14-.19c.39-.54.78-1.09,1.16-1.65-2.37-1.2-4.85-2.34-7.36-3.49" transform="translate(0)"/><path class="a3111530-7255-49c3-920e-5e9bbf538f55" d="M240.17,6a4.93,4.93,0,0,1,4.93,4.93V255.42a4.93,4.93,0,0,1-4.93,4.93H10.93A4.93,4.93,0,0,1,6,255.42V10.93A4.93,4.93,0,0,1,10.93,6H240.17m0-6H10.93A10.93,10.93,0,0,0,0,10.93V255.42a10.93,10.93,0,0,0,10.93,10.93H240.17a10.93,10.93,0,0,0,10.93-10.93V10.93A10.93,10.93,0,0,0,240.17,0Z" transform="translate(0)"/><path class="a3111530-7255-49c3-920e-5e9bbf538f55" d="M88.32,6a4,4,0,0,1,4,4V28.17a4,4,0,0,1-4,4H10a4,4,0,0,1-4-4V10a4,4,0,0,1,4-4H88.32m0-6H10A10,10,0,0,0,0,10V28.17a10,10,0,0,0,10,10H88.32a10,10,0,0,0,10-10V10a10,10,0,0,0-10-10Z" transform="translate(0)"/><line class="f5472a73-0ca1-475d-afbe-014bb730f447" x1="15.36" y1="19.09" x2="82.96" y2="19.09"/></svg>