<?xml version="1.0" encoding="utf-8"?>
<!-- Generator: Adobe Illustrator 24.0.1, SVG Export Plug-In . SVG Version: 6.00 Build 0)  -->
<svg version="1.1" id="bb3f9d24-babb-4d7e-9527-527a445bb099"
	 xmlns="http://www.w3.org/2000/svg" xmlns:xlink="http://www.w3.org/1999/xlink" x="0px" y="0px" viewBox="0 0 200 200"
	 style="enable-background:new 0 0 200 200;" xml:space="preserve">
<style type="text/css">
	.st0{fill:#3D64AD;}
</style>
<path class="st0" d="M190,6c2.2,0,4,1.8,4,4v114.9c-6.4-5.1-12.8-10.3-19-15.4c-3.9-3.2-7.9-6.5-12-9.7c-5.4-4.4-12.8-9.4-21.5-9.4
	c-1.3,0-2.6,0.1-3.9,0.3c-8.1,1.4-12.7,6.1-17.1,11s-8.2,9.6-12,14.2c-7.1,8.5-13.3,16.5-21,24.3c-1.4,1.5-3.4,1.2-4.8,0.3
	c-3.4-2.3-5.2-3.6-8.3-5.8c-3.9-2.9-7.9-5.7-12.1-8.2c-5.8-3.4-12.4-5.2-19.1-5.3c-3.7,0-7.4,0.6-10.9,2
	c-8.8,3.5-12.8,7.2-18.3,12.2c-1.2,1.1-2.4,2.2-3.8,3.4l-1.8,1.6c-0.8,0.7-1.7,1.4-2.5,2.2V10c0-2.2,1.8-4,4-4l0,0H190 M81.9,96.5
	c0.8,0,1.6,0,2.4-0.1c14.4-1.2,25.8-12.6,27-27c0.7-8.2-2.1-16.3-7.7-22.3S90.2,37.6,82,37.6c-0.8,0-1.6,0-2.4,0.1
	c-14.4,1.2-25.8,12.6-27,27C51.9,72.9,54.7,81,60.3,87S73.7,96.5,81.9,96.5 M81.9,48.4v6c0.4,0,0.9,0,1.3,0.1c0.3,0.1,0.6,0.1,1,0.2
	c5.4,1.1,9.7,5.6,10.3,11.1c0.7,6.9-4.3,13.2-11.2,13.9c-0.4,0-0.9,0.1-1.3,0.1s-0.9,0-1.3-0.1c-6-0.7-10.7-5.4-11.4-11.3
	c-0.7-7,4.3-13.2,11.2-13.9c0.5-0.1,1-0.1,1.4-0.1 M142.5,101.2l-0.1,5.9c3.3,0,7,3.1,10.8,6.4c0.9,0.8,1.9,1.6,2.9,2.4
	c4.2,3.4,8.3,6.7,12.3,10c6.6,5.5,13.5,11.1,20.5,16.6l0.2,0.1c1.8,1.4,3.4,2.7,5,4V190c0,2.2-1.8,4-4,4H10c-2.2,0-4-1.8-4-4v-23.3
	c2.4-2.7,4.9-5.3,7.7-7.7l1.7-1.6c1.7-1.5,3.3-3.1,4.8-4.6c5.3-5.2,10.3-10.1,16.7-12.7c2.1-0.9,4.4-1.4,6.7-1.4
	c3.9,0.1,7.6,1.3,10.9,3.3c4,2.5,7.9,5.2,11.6,8.2c3.6,2.7,7.3,5.5,10.9,7.7c2.5,1.4,5.4,2.1,8.3,2.1c0.3,0,0.7,0,1,0
	c4-0.3,7.8-2,10.6-4.9c10-10.4,18-20.2,26.4-30.7c2-2.5,4.1-5.1,6.3-7.7c1.8-2.1,7.1-8.7,11.8-9.5c0.4-0.1,0.7-0.1,1-0.1
	L142.5,101.2 M190,0H10C4.5,0,0,4.5,0,10v147.4c0.2-0.3,0.4-0.6,0.6-0.9c2.8-3.8,10.1-10,13.7-13.1c8-7,10.9-10.8,20.4-14.6
	c2.7-1.1,5.7-1.6,8.6-1.6c5.7,0.1,11.2,1.7,16.1,4.5c7.4,4.2,13.8,9.9,21.1,14.3c1.4,1,3.1,1.7,4.9,1.8h0.3c2.3-0.1,4.3-1.7,5.9-3.4
	c11.9-12.3,21.8-25.3,33.7-38.8c4-4.7,7.5-8,13.6-9.1c0.9-0.2,1.9-0.2,2.8-0.3c6.5,0,12.4,3.8,17.7,8.1c11.2,9,21.9,18,33,26.7
	c2.7,2.1,5.3,4,7.8,6.2V10C200,4.5,195.5,0,190,0z M81.9,90.5C69,90.5,58.5,80,58.5,67c0-12.2,9.4-22.3,21.5-23.3
	c0.6,0,1.3-0.1,1.9-0.1c13,0,23.4,10.5,23.4,23.5c0,12.2-9.4,22.3-21.5,23.3C83.2,90.4,82.5,90.5,81.9,90.5z M81.8,48.4
	c-10.3,0-18.6,8.3-18.6,18.6c0,9.6,7.2,17.7,16.8,18.6c0.6,0.1,1.3,0.1,1.9,0.1c10.3,0,18.6-8.4,18.6-18.7c0-9.5-7.2-17.5-16.7-18.5
	C83.2,48.4,82.5,48.4,81.8,48.4L81.8,48.4z M142.5,101.2c-0.7,0-1.4,0.1-2.1,0.2c-6.1,1.1-11.5,6.8-15.4,11.6
	c-10.9,13.3-20.2,25.3-32.4,38c-1.8,1.8-4.1,2.8-6.6,3.1h-0.7c-1.8,0.1-3.6-0.3-5.2-1.2c-7.3-4.5-15.3-11.8-22.7-16
	c-4.2-2.6-9-4-13.9-4.1c-3.1,0-6.1,0.6-9,1.8c-9.5,3.8-15.8,11.4-23.4,18.5c-3.4,3.2-7.9,7.1-10.7,10.9c-0.2,0.2-0.4,0.6-0.6,0.9
	V190c0,5.5,4.5,10,10,10h180c5.5,0,10-4.5,10-10v-46.2c-2.5-2.1-4.8-3.9-7.5-6c-11.1-8.8-21.6-17.5-32.7-26.6
	C154.3,106.9,149.1,101.3,142.5,101.2L142.5,101.2z"/>
</svg>
