<svg id="b9fbc24b-1c44-4a87-9c94-db2309df8676" data-name="Layer 1" xmlns="http://www.w3.org/2000/svg" viewBox="0 0 250.7 266.34"><defs><style>.b878a408-ed5e-443f-aead-a2071b1cd037,.fe51265c-60f2-4c91-8272-1334f91c84fe{fill:none;stroke:#3d64ad;stroke-linecap:round;stroke-width:6px;}.b878a408-ed5e-443f-aead-a2071b1cd037{stroke-linejoin:round;}.fe51265c-60f2-4c91-8272-1334f91c84fe{stroke-miterlimit:10;}</style></defs><title>functions-icon-5</title><path class="b878a408-ed5e-443f-aead-a2071b1cd037" d="M194.44,131.7,228.9,152l-34.6,20-35.51-19.22Z" transform="translate(-51 -8.73)"/><path class="fe51265c-60f2-4c91-8272-1334f91c84fe" d="M263.5,132.05l-69.2-40" transform="translate(-51 -8.73)"/><path class="fe51265c-60f2-4c91-8272-1334f91c84fe" d="M54,91.88l140.3-79.7,104.4,59.3" transform="translate(-51 -8.73)"/><path class="b878a408-ed5e-443f-aead-a2071b1cd037" d="M158.79,192l35.51,19.85V172l34.6-20v40l-34.6,19.9v39.7l-35.51,20.48M124,131.78,89.1,151.66v-39.8L194.3,52.08v79.7m69.2-39.9,35.2-20.3v40l-35.2,20.45Z" transform="translate(-51 -8.73)"/><path class="b878a408-ed5e-443f-aead-a2071b1cd037" d="M124,250.73V131.78L158.79,112v160ZM71.3,141.28,54,130.88v-39l35.1,20v39.8Zm123-49.4V52.08l69.2,39.8" transform="translate(-51 -8.73)"/></svg>