<?xml version="1.0" encoding="utf-8"?>
<!-- Generator: Adobe Illustrator 24.0.1, SVG Export Plug-In . SVG Version: 6.00 Build 0)  -->
<svg version="1.1" id="Layer_2" xmlns="http://www.w3.org/2000/svg" xmlns:xlink="http://www.w3.org/1999/xlink" x="0px" y="0px"
	 viewBox="0 0 6300 3500" style="enable-background:new 0 0 6300 3500;" xml:space="preserve">
<style type="text/css">
	.st0{display:none;}
	.st1{display:inline;fill:url(#SVGID_1_);}
	.st2{display:inline;fill:url(#SVGID_2_);}
	.st3{display:inline;fill:url(#SVGID_3_);}
	.st4{display:none;clip-path:url(#SVGID_5_);fill:#4B80ED;}
	.st5{display:none;clip-path:url(#SVGID_5_);fill:none;stroke:#FFFFFF;stroke-width:14.8255;stroke-miterlimit:10;}
	.st6{clip-path:url(#SVGID_5_);}
	.st7{fill:#4A80F2;}
	.st8{fill:#5390F0;}
	.st9{clip-path:url(#SVGID_5_);fill:none;stroke:#7DC5FC;stroke-width:14.8255;stroke-miterlimit:10;}
</style>
<g class="st0">
	<linearGradient id="SVGID_1_" gradientUnits="userSpaceOnUse" x1="-190.7191" y1="2181.6113" x2="6329.5293" y2="2181.6113">
		<stop  offset="0" style="stop-color:#19A5E3"/>
		<stop  offset="1" style="stop-color:#3B57A0"/>
	</linearGradient>
	<path class="st1" d="M7.6,417.8c152.5,168.4,353.7,295.7,566,381.1c620.9,249.7,1335.7,247.9,1993.4,225.1
		c224.3-7.8,448.7-17.2,673.3-16c564.1,3.2,1151.8,83.2,1618.8,399.7c462.9,313.7,755.2,826,945.5,1351.7
		c190.4,525.7,294.3,1079.1,473.3,1608.8c43.1-1355.2,86.2-2712.4,9.2-4066.1c-3.9-69-12.9-147.3-68.6-188.3
		c-39.5-29.1-92.1-30.9-141.2-31.6C4031.1,53.2,1984.9,24.1-61.3-4.9c-41.2-0.6-88.6,1.7-114,34.2c-28.7,36.9-12.2,90.4,8.2,132.4
		C-121.4,255.5-62,340.9,7.6,417.8z"/>
	<linearGradient id="SVGID_2_" gradientUnits="userSpaceOnUse" x1="274.3414" y1="1145.0657" x2="6431.9824" y2="1145.0657">
		<stop  offset="0" style="stop-color:#327ABD"/>
		<stop  offset="1" style="stop-color:#3670B4"/>
	</linearGradient>
	<path class="st2" d="M738.5,428c213,128.5,443.3,228.2,682.8,295.3c419.9,117.6,857,164.4,1289.4,219.5
		c447.9,57.1,897.3,115.9,1335.2,228.9c30.6,7.9,61.2,16.1,91.7,24.5c836.2,231.6,1603.9,670.5,2293.9,1196.6
		c5.5-755.9-38.7-1512.1-132.2-2262.2c-3.8-30.3-9.1-63.4-32.1-83.3c-21-18.2-51-20.4-78.8-21.7
		C4280.1-65.2,2369.5-107.8,459.1-102.1c-65.5,0.2-144.2,8-174.3,66.2c-35.7,69.2,26.5,147.2,85.5,197.9
		C485.4,260.7,608.7,349.7,738.5,428z"/>
	
		<linearGradient id="SVGID_3_" gradientUnits="userSpaceOnUse" x1="834.4966" y1="1679.592" x2="7140.8711" y2="1679.592" gradientTransform="matrix(0.9963 8.597954e-02 -8.597954e-02 0.9963 66.5352 -404.9549)">
		<stop  offset="0" style="stop-color:#327ABD"/>
		<stop  offset="1" style="stop-color:#7881BB"/>
	</linearGradient>
	<path class="st3" d="M1330.6,52.2c201.1,146.3,422,265.5,654.9,352.9c408.2,153.2,839.7,237.5,1265.8,329.5
		c441.4,95.4,884,192.6,1310.6,342.8c29.8,10.5,59.6,21.3,89.2,32.3c813.2,302.7,1695.9,1626.1,2225.1,2629.2
		c70.5-752.6,48.8-2749.6,20.1-3504.9c-1.2-30.5-3.6-63.9-24.9-85.8c-19.4-19.9-49.1-24.7-76.6-28.4
		C4901.4-134.6,3001.6-341.3,1097.8-500c-65.3-5.4-144.4-4.4-179.3,51c-41.5,65.8,13.7,148.9,68.2,204.5
		C1092.8-136.2,1208-37,1330.6,52.2z"/>
</g>
<g>
	<defs>
		<rect id="SVGID_4_" x="0" y="0" width="6300" height="3198.6"/>
	</defs>
	<clipPath id="SVGID_5_">
		<use xlink:href="#SVGID_4_"  style="overflow:visible;"/>
	</clipPath>
	
		<rect x="1878.6" y="-962.7" transform="matrix(4.489659e-11 -1 1 4.489659e-11 1718.6395 5077.2539)" class="st4" width="3038.6" height="5284.1"/>
	<path class="st5" d="M6055.5,3017c-258.3,93-563.3,58.3-721.6-153c-171.7-229.1-137.9-500.4-73.7-771.3
		c97.6-411.6,190.1-859-207.2-1146c-570.3-412-1167.3,293.8-1749.1,5.7c-136.1-67.4-235.6-188.1-329.8-303.8
		c-138.7-170.2-286.3-296.9-508-338.2c-387.6-72.2-911,36.7-1143.4-376.3c-52.9-93.9-75.7-202.3-84-309.9
		c-21.5-279.1,70.8-589.2,308.9-734.6c398.1-243,926.2-22.5,1251.6,235.3c250,198.1,477.7,291.4,736,345.8
		c264.4,55.7,550.7-44,812.3,23.7c192.4,49.8,329.1,135.2,461.3,283.9c120.4,135.4,225.9,290.8,399.5,362
		c254.6,104.4,556.3,20.5,811.2,124.2c277.7,113,428.5,422.1,473.4,719.8c31.7,210.3,23.1,426.7-25.2,633.8"/>
	<g class="st6">
		<path class="st7" d="M6541.3,2651.7c-249,115.9-571.1,36.8-747.6-159.3c-191.4-212.7-192.2-487-163.4-763.9
			c61.3-589.5-167.8-827.6-367.6-911.2c-563.7-235.9-1140.3,237.4-1802.6-70.5C3290.8,668,3196.6,565,3063.9,466.9
			c-176.6-130.4-341.1-122.9-565.8-104.2c-415.7,34.7-725.1,194-1112-387.2c-59.7-89.7-93.4-194.6-111.3-301.1
			c-46.4-276,17.9-593.2,242.1-759.4c374.8-277.9,920.5-105.8,1267.5,121.7C3051-788.4,3286.2-716,3548.3-685.1
			c268.3,31.7,544.6-93.4,811.2-49.5c196,32.3,339.8,105,484.7,241.2c132,124,250.9,269.3,430.2,324.6
			c262.9,81.1,555.9-29.7,819,50.7c286.7,87.5,464.5,381.9,535.7,674.3c50.4,206.6,61.1,422.9,31.4,633.6"/>
	</g>
	<g class="st6">
		<path class="st8" d="M6518.6,2161.7c-66.8,87.9-163.5,154.2-272.4,159.2c-160.3,7.3-303.2-123.5-352.6-276.1
			c-49.4-152.6-22.8-319.9,26-472.7s119.1-298.7,158.9-454.1c67.6-264.2,40.6-555.7-94.9-792.3s-383.5-411.1-655-436.7
			c-134.6-12.7-270.9,9.7-405.3-5.4c-118.3-13.2-259.2-67.3-314.2-181.8c-27.7-57.7-55.6-109.6-52.5-176.2
			c3.4-71.2,29.3-140.6,57.1-205.4c100.1-232.9,200.3-465.9,300.4-698.8c76.6-178.2,160.9-366.1,321.3-475.3
			c122.6-83.5,275-110.3,406-179.8c173.9-92.3,304.5-262.6,348.4-454.5c34.9-152.6,18.8-319.5,91.7-458
			c85.5-162.5,283.2-246.5,466-229c182.8,17.6,348.5,122.7,473,257.6c248.5,269.4,346.7,650.2,345.6,1016.7s-91.7,726-177.4,1082.3
			c-201.4,838-378.5,1682.1-520.7,2532.1c-22.1,132.1-44.3,267.3-108.4,384.9C6547.7,2120.2,6533.9,2141.5,6518.6,2161.7z"/>
	</g>
	<g class="st6">
		
			<image style="overflow:visible;opacity:0.35;" width="10448" height="4375" xlink:href="7D691D32.png"  transform="matrix(0.24 0 0 0.24 3504.9905 -579.3184)">
		</image>
		<g>
			<path class="st8" d="M5656.4-19.2c-239-107.2-425.9-39.8-620.3,32.6c-195.3,72.7-332.6,238.3-535.2,304.5
				c-283.8,92.7-674.7,1.1-728.7-339.8"/>
		</g>
	</g>
	<path class="st9" d="M5262.2,1584.5c-20.8,0-37.6,16.9-37.6,37.8s16.9,37.8,37.6,37.8c20.8,0,37.6-16.9,37.6-37.8
		S5283,1584.5,5262.2,1584.5z"/>
	<ellipse class="st9" cx="5850.4" cy="964.8" rx="37.6" ry="37.8"/>
	<path class="st9" d="M5291.1,70.4c-20.8,0-37.6,16.9-37.6,37.8c0,20.9,16.9,37.8,37.6,37.8c23.5,0,37.6-16.9,37.6-37.8
		C5328.7,87.4,5311.9,70.4,5291.1,70.4z"/>
	<path class="st9" d="M3748.9,634.6c-20.8,0-37.6,16.9-37.6,37.8c0,20.9,16.9,37.8,37.6,37.8c23.5,0,37.6-16.9,37.6-37.8
		C3786.5,651.5,3769.7,634.6,3748.9,634.6z"/>
	<path class="st9" d="M5575.3,3007.8c-20.8,0-37.6,16.9-37.6,37.8c0,20.9,16.9,37.8,37.6,37.8c20.8,0,37.6-16.9,37.6-37.8
		C5613,3024.7,5596.1,3007.8,5575.3,3007.8z"/>
	<path class="st9" d="M2353,741.9c-20.8,0-37.6,16.9-37.6,37.8c0,20.9,16.9,37.8,37.6,37.8c20.8,0,37.6-16.9,37.6-37.8
		C2390.7,758.9,2373.8,741.9,2353,741.9z"/>
	<path class="st9" d="M3136.5,1395.4c-20.8,0-37.6,16.9-37.6,37.8s16.9,37.8,37.6,37.8c20.8,0,37.6-16.9,37.6-37.8
		S3157.3,1395.4,3136.5,1395.4z"/>
	<path class="st9" d="M2458.4,2823.7c-20.8,0-37.6,16.9-37.6,37.8s16.9,37.8,37.6,37.8c20.8,0,37.6-16.9,37.6-37.8
		S2479.2,2823.7,2458.4,2823.7z"/>
	<path class="st9" d="M469,1256c-20.8,0-37.6,16.9-37.6,37.8s16.9,37.8,37.6,37.8c20.8,0,37.6-16.9,37.6-37.8S489.8,1256,469,1256z"
		/>
</g>
</svg>
