<?xml version="1.0" encoding="utf-8"?>
<!-- Generator: Adobe Illustrator 24.0.1, SVG Export Plug-In . SVG Version: 6.00 Build 0)  -->
<svg version="1.1" id="Layer_1" xmlns="http://www.w3.org/2000/svg" xmlns:xlink="http://www.w3.org/1999/xlink" x="0px" y="0px"
	 viewBox="0 0 1643 394.2" style="enable-background:new 0 0 1643 394.2;" xml:space="preserve">
<style type="text/css">
	.st0{fill:none;stroke:#000000;stroke-width:16;stroke-linecap:round;stroke-miterlimit:10;stroke-dasharray:68,38;}
	.st1{fill:#3C63AD;stroke:#000000;stroke-width:12;stroke-linecap:round;stroke-miterlimit:10;}
	.st2{fill:none;stroke:#000000;stroke-width:16;stroke-linecap:round;stroke-miterlimit:10;}
	.st3{fill:none;stroke:#000000;stroke-width:16;stroke-linecap:round;stroke-miterlimit:10;stroke-dasharray:160,61;}
	.st4{fill:#2558A4;}
</style>
<rect x="32" y="31.7" class="st0" width="330.4" height="330.4"/>
<g>
	<circle class="st1" cx="32" cy="362.1" r="25.5"/>
	<circle class="st1" cx="32" cy="31.7" r="25.5"/>
	<circle class="st1" cx="362.4" cy="31.7" r="25.5"/>
	<circle class="st1" cx="362.4" cy="362.1" r="25.5"/>
</g>
<path class="st2" d="M307.9,318.1H86.6c-5.8,0-10.5-4.7-10.5-10.5V86.3c0-5.8,4.7-10.5,10.5-10.5h221.3c5.8,0,10.5,4.7,10.5,10.5
	v221.3C318.4,313.4,313.7,318.1,307.9,318.1z"/>
<path class="st3" d="M265.8,283.6H128.7c-10,0-18.1-8.1-18.1-18.1V128.4c0-10,8.1-18.1,18.1-18.1h137.1c10,0,18.1,8.1,18.1,18.1
	v137.1C283.9,275.5,275.8,283.6,265.8,283.6z"/>
<g>
	<path class="st4" d="M496.8,294.1c-21.7-11.7-38.8-28-51.2-48.9C433.2,224.4,427,201,427,175.3s6.2-49.1,18.6-69.9
		C458,84.5,475,68.2,496.8,56.5c21.7-11.7,46.1-17.6,73.1-17.6s51.4,5.9,73.1,17.6c21.7,11.7,38.8,28,51.2,48.7s18.6,44.1,18.6,70.1
		s-6.2,49.4-18.6,70.1c-12.4,20.7-29.4,37-51.2,48.7c-21.7,11.7-46.1,17.6-73.1,17.6C542.9,311.7,518.5,305.9,496.8,294.1z
		 M617.7,256.6c14.1-8,25.3-19.1,33.4-33.4c8.1-14.3,12.1-30.3,12.1-47.9c0-17.7-4-33.7-12.1-47.9C643,113.1,631.9,102,617.7,94
		s-30.1-11.9-47.8-11.9s-33.6,4-47.8,11.9c-14.2,8-25.3,19.1-33.4,33.4s-12.1,30.3-12.1,47.9c0,17.7,4,33.7,12.1,47.9
		c8.1,14.3,19.2,25.4,33.4,33.4c14.1,8,30.1,11.9,47.8,11.9C587.6,268.5,603.5,264.5,617.7,256.6z"/>
	<path class="st4" d="M903.2,116.2c15.5,8.6,27.7,20.7,36.6,36.4c8.8,15.7,13.3,33.7,13.3,54.2s-4.4,38.6-13.3,54.4
		c-8.8,15.8-21,28-36.6,36.6c-15.5,8.6-33.2,12.9-52.9,12.9c-13.9,0-26.6-2.4-38.1-7.2c-11.5-4.8-21.2-12-29-21.6v26.2h-45.1V26.7
		h47.4v103.5c8.1-8.8,17.6-15.5,28.6-20.1c11-4.5,23.1-6.8,36.2-6.8C870.1,103.3,887.7,107.6,903.2,116.2z M888.1,252.6
		c11.2-11.6,16.9-26.9,16.9-45.9c0-18.9-5.6-34.2-16.9-45.9c-11.2-11.6-25.6-17.4-43-17.4c-11.4,0-21.6,2.6-30.7,7.8
		c-9.1,5.2-16.3,12.6-21.6,22.2c-5.3,9.6-8,20.7-8,33.4c0,12.6,2.7,23.8,8,33.4c5.3,9.6,12.5,17,21.6,22.2s19.3,7.8,30.7,7.8
		C862.5,270,876.8,264.2,888.1,252.6z"/>
	<path class="st4" d="M909.5,372.4l13.6-35.2c7.1,5.3,16.3,8,27.7,8c8.8,0,15.6-2.7,20.3-8.1s7-13.5,7-24.1V105.6h47.4v206.2
		c0,22.5-6.2,40.2-18.6,53.1c-12.4,12.9-29.7,19.3-51.9,19.3C935,384.1,919.8,380.2,909.5,372.4z M980,64.1
		c-5.8-5.4-8.7-12.2-8.7-20.3s2.9-14.8,8.7-20.3c5.8-5.4,13-8.1,21.6-8.1s15.8,2.6,21.6,7.8c5.8,5.2,8.7,11.7,8.7,19.5
		c0,8.3-2.8,15.3-8.5,21c-5.7,5.7-13,8.5-21.8,8.5C993,72.2,985.8,69.5,980,64.1z"/>
	<path class="st4" d="M1254.7,221.9h-158.8c2.8,14.9,10,26.7,21.8,35.4c11.8,8.7,26.3,13.1,43.8,13.1c22.2,0,40.6-7.3,55-22
		l25.4,29.2c-9.1,10.9-20.6,19.1-34.5,24.6c-13.9,5.6-29.6,8.3-47,8.3c-22.2,0-41.8-4.4-58.7-13.3c-16.9-8.8-30-21.2-39.2-37
		s-13.8-33.7-13.8-53.6c0-19.7,4.5-37.5,13.5-53.2c9-15.8,21.4-28.1,37.3-37c15.9-8.8,33.9-13.3,53.8-13.3
		c19.7,0,37.3,4.4,52.9,13.1c15.5,8.7,27.7,21,36.4,36.8c8.7,15.8,13.1,34.1,13.1,54.8C1255.5,211.2,1255.2,215.8,1254.7,221.9z
		 M1114.7,154.6c-10.5,9-16.9,20.9-19.1,35.8h114.8c-2-14.7-8.2-26.5-18.6-35.6c-10.4-9.1-23.2-13.6-38.7-13.6
		C1138,141.2,1125.2,145.7,1114.7,154.6z"/>
	<path class="st4" d="M1335.1,297.3c-16.7-8.8-29.7-21.2-39-37c-9.4-15.8-14-33.7-14-53.6c0-20,4.7-37.8,14-53.4
		c9.3-15.7,22.3-27.9,38.8-36.8c16.5-8.8,35.4-13.3,56.7-13.3c20,0,37.5,4,52.5,12.1s26.3,19.7,33.9,34.9l-36.4,21.2
		c-5.8-9.3-13.1-16.4-21.8-21c-8.7-4.7-18.3-7-28.6-7c-17.7,0-32.3,5.8-44,17.2c-11.6,11.5-17.4,26.9-17.4,46
		c0,19.2,5.7,34.6,17.2,46c11.5,11.5,26.2,17.2,44.2,17.2c10.4,0,19.9-2.3,28.6-7s16-11.7,21.8-21L1478,263
		c-7.8,15.2-19.3,26.8-34.3,35.1c-15,8.2-32.4,12.3-52.1,12.3C1370.6,310.6,1351.8,306.2,1335.1,297.3z"/>
	<path class="st4" d="M1640.9,297c-5.6,4.5-12.3,8-20.3,10.2c-8,2.3-16.4,3.4-25.2,3.4c-22.2,0-39.4-5.8-51.5-17.4
		s-18.2-28.5-18.2-50.8V145h-33.4v-37.9h33.4V60.8h47.4V107h54.2v38h-54.2v96.3c0,9.9,2.4,17.4,7.2,22.6c4.8,5.2,11.7,7.8,20.8,7.8
		c10.6,0,19.5-2.8,26.5-8.3L1640.9,297z"/>
</g>
</svg>
