<?xml version="1.0" encoding="utf-8"?>
<!-- Generator: Adobe Illustrator 24.0.1, SVG Export Plug-In . SVG Version: 6.00 Build 0)  -->
<svg version="1.1" id="Layer_1" xmlns="http://www.w3.org/2000/svg" xmlns:xlink="http://www.w3.org/1999/xlink" x="0px" y="0px"
	 viewBox="0 0 5600 5292.2" style="enable-background:new 0 0 5600 5292.2;" xml:space="preserve">
<style type="text/css">
	
		.st0{fill:none;stroke:#000000;stroke-width:160.2948;stroke-linecap:round;stroke-miterlimit:10;stroke-dasharray:681.2528,380.7001;}
	.st1{fill:#3C63AD;stroke:#000000;stroke-width:120.2211;stroke-linecap:round;stroke-miterlimit:10;}
	.st2{fill:none;stroke:#000000;stroke-width:160.2948;stroke-linecap:round;stroke-miterlimit:10;}
	
		.st3{fill:none;stroke:#000000;stroke-width:160.2948;stroke-linecap:round;stroke-miterlimit:10;stroke-dasharray:1602.9479,611.1238;}
	.st4{fill:#2457A4;}
</style>
<rect x="1144.8" y="344.8" class="st0" width="3310.4" height="3310.4"/>
<g>
	<circle class="st1" cx="1144.8" cy="3655.2" r="255.3"/>
	<circle class="st1" cx="1144.8" cy="344.8" r="255.3"/>
	<circle class="st1" cx="4455.2" cy="344.8" r="255.3"/>
	<circle class="st1" cx="4455.2" cy="3655.2" r="255.3"/>
</g>
<path class="st2" d="M3908.6,3213.9H1691.4c-58.2,0-105.3-47.1-105.3-105.3V891.4c0-58.2,47.1-105.3,105.3-105.3h2217.3
	c58.2,0,105.3,47.1,105.3,105.3v2217.3C4013.9,3166.8,3966.8,3213.9,3908.6,3213.9z"/>
<path class="st3" d="M3486.8,2868.6H2113.2c-100.4,0-181.8-81.4-181.8-181.8V1313.2c0-100.4,81.4-181.8,181.8-181.8h1373.6
	c100.4,0,181.8,81.4,181.8,181.8v1373.6C3668.6,2787.2,3587.2,2868.6,3486.8,2868.6z"/>
<g>
	<path class="st4" d="M1060.3,4961.8c-70.4-38-125.6-90.8-165.7-158.3s-60.1-143-60.1-226.4c0-83.5,20-158.9,60.1-226.4
		s95.3-120.3,165.7-158.3c70.4-38,149.3-57.1,236.9-57.1c87.5,0,166.5,19,236.9,57.1s125.6,90.6,165.7,157.7s60.1,142.8,60.1,227
		c0,84.3-20,160-60.1,227.1s-95.3,119.7-165.7,157.7s-149.3,57.1-236.9,57.1C1209.6,5018.8,1130.7,4999.8,1060.3,4961.8z
		 M1451.8,4840.3c45.8-25.8,81.8-61.8,108-108c26.2-46.2,39.3-98,39.3-155.3c0-57.3-13.1-109-39.3-155.3
		c-26.2-46.2-62.2-82.2-108-108c-45.8-25.8-97.4-38.7-154.6-38.7c-57.3,0-108.8,12.9-154.7,38.7s-81.8,61.8-108,108
		c-26.2,46.2-39.3,98-39.3,155.3c0,57.3,13.1,109,39.3,155.3c26.2,46.2,62.2,82.2,108,108s97.4,38.7,154.7,38.7
		C1354.4,4878.9,1406,4866.1,1451.8,4840.3z"/>
	<path class="st4" d="M2376.6,4385.6c50.3,27.8,89.8,67.1,118.4,117.8c28.6,50.7,43,109.2,43,175.5s-14.3,125-43,176.1
		s-68.1,90.6-118.4,118.4s-107.4,41.7-171.2,41.7c-45,0-86.1-7.8-123.3-23.3c-37.2-15.5-68.5-38.9-93.9-70v84.7h-146v-910.7h153.4
		V4431c26.2-28.6,57.1-50.3,92.7-65c35.6-14.7,74.7-22.1,117.2-22.1C2269.2,4343.8,2326.3,4357.7,2376.6,4385.6z M2327.5,4827.4
		c36.4-37.6,54.6-87.1,54.6-148.5c0-61.4-18.2-110.9-54.6-148.5s-82.8-56.5-139.3-56.5c-36.8,0-70,8.4-99.4,25.2
		c-29.5,16.8-52.8,40.7-70,71.8s-25.8,67.1-25.8,108s8.6,76.9,25.8,108s40.5,55,70,71.8c29.5,16.8,62.6,25.2,99.4,25.2
		C2244.6,4883.8,2291.1,4865,2327.5,4827.4z"/>
	<path class="st4" d="M2396.8,5215.2l44.2-114.1c22.9,17.2,52.8,25.8,89.6,25.8c28.6,0,50.5-8.8,65.7-26.4
		c15.1-17.6,22.7-43.6,22.7-77.9v-671.3h153.4v667.7c0,72.8-20,130.1-60.1,171.8c-40.1,41.7-96.1,62.6-168.1,62.6
		C2479.5,5253.3,2430.4,5240.6,2396.8,5215.2z M2625.1,4216.8c-18.8-17.6-28.2-39.5-28.2-65.7s9.4-48.1,28.2-65.7s42.1-26.4,70-26.4
		c27.8,0,51.1,8.4,69.9,25.2c18.8,16.8,28.2,37.8,28.2,63.2c0,27-9.2,49.7-27.6,68.1s-41.9,27.6-70.6,27.6
		C2667.3,4243.2,2643.9,4234.4,2625.1,4216.8z"/>
	<path class="st4" d="M3514.9,4728h-514.3c9,48.3,32.5,86.5,70.6,114.8c38,28.2,85.3,42.3,141.8,42.3c72,0,131.3-23.7,178-71.2
		l82.2,94.5c-29.5,35.2-66.7,61.8-111.7,79.8s-95.7,27-152.2,27c-72,0-135.4-14.3-190.3-43s-97.2-68.5-127-119.7
		c-29.9-51.1-44.8-109-44.8-173.7c0-63.8,14.5-121.3,43.6-172.4s69.3-91,120.9-119.7c51.5-28.6,109.6-43,174.3-43
		c63.8,0,120.9,14.1,171.2,42.3c50.3,28.2,89.6,67.9,117.8,119c28.2,51.1,42.3,110.3,42.3,177.3
		C3517.4,4693.2,3516.5,4708.3,3514.9,4728z M3061.4,4510.1c-34,29-54.6,67.7-62,116h371.9c-6.5-47.5-26.6-85.9-60.1-115.4
		s-75.3-44.2-125.2-44.2C3136.9,4466.6,3095.4,4481.1,3061.4,4510.1z"/>
	<path class="st4" d="M3775.1,4972.2c-54-28.6-96.1-68.5-126.4-119.7c-30.3-51.1-45.4-109-45.4-173.7s15.1-122.3,45.4-173.1
		c30.3-50.7,72.2-90.4,125.8-119c53.6-28.6,114.8-43,183.5-43c64.6,0,121.3,13.1,170,39.3s85.3,63.8,109.8,112.9l-117.8,68.7
		c-18.8-30.3-42.4-53-70.6-68.1c-28.2-15.1-59.1-22.7-92.7-22.7c-57.3,0-104.8,18.6-142.4,55.8c-37.6,37.2-56.5,86.9-56.5,149.1
		s18.6,111.9,55.8,149.1c37.2,37.2,84.9,55.8,143,55.8c33.5,0,64.4-7.6,92.7-22.7c28.2-15.1,51.8-37.8,70.6-68.1l117.8,68.7
		c-25.4,49.1-62.4,86.9-111.1,113.5s-104.9,39.9-168.8,39.9C3890.1,5015.2,3829.1,5000.9,3775.1,4972.2z"/>
	<path class="st4" d="M4765.5,4971c-18,14.7-39.9,25.8-65.7,33.1s-53,11-81.6,11c-72,0-127.6-18.8-166.9-56.5s-58.9-92.5-58.9-164.5
		v-315.4h-108v-122.7h108v-149.7h153.4v149.7h175.5v122.7h-175.5v311.8c0,31.9,7.8,56.3,23.3,73c15.5,16.8,38,25.2,67.5,25.2
		c34.4,0,63-9,85.9-27L4765.5,4971z"/>
</g>
</svg>
